<?xml version="1.0" standalone="no"?>
<!DOCTYPE svg PUBLIC "-//W3C//DTD SVG 20010904//EN"
 "http://www.w3.org/TR/2001/REC-SVG-20010904/DTD/svg10.dtd">
<svg version="1.0" xmlns="http://www.w3.org/2000/svg"
 width="420.000000pt" height="420.000000pt" viewBox="0 0 420.000000 420.000000"
 preserveAspectRatio="xMidYMid meet">

<g transform="translate(0.000000,420.000000) scale(0.100000,-0.100000)"
fill="#000000" stroke="none">
<path d="M3817 3772 c5 -11 3 -13 -7 -7 -9 5 -11 4 -6 -3 9 -15 -12 -54 -24
-47 -6 4 -7 -1 -3 -11 5 -13 3 -15 -7 -9 -9 5 -11 4 -6 -4 4 -6 -6 -24 -23
-42 -25 -25 -34 -28 -50 -19 -31 16 -40 12 -61 -22 -11 -18 -20 -29 -20 -24 0
5 -6 3 -14 -3 -10 -8 -21 -9 -42 0 -24 9 -31 8 -39 -6 -33 -56 -41 -61 -81
-46 -28 10 -39 11 -42 2 -2 -6 -10 -17 -17 -25 -8 -7 -12 -16 -9 -19 3 -3 -4
-8 -16 -12 -13 -4 -25 -3 -29 1 -11 15 -41 16 -56 1 -8 -8 -11 -17 -8 -21 4
-3 1 -6 -6 -6 -7 0 -9 -4 -6 -10 3 -5 1 -10 -4 -10 -6 0 -10 -3 -9 -7 4 -14
-36 -73 -50 -73 -7 0 -22 5 -33 10 -13 7 -25 8 -37 1 -9 -6 -13 -11 -9 -11 5
0 1 -7 -7 -16 -9 -8 -16 -21 -16 -28 0 -8 64 -41 145 -76 80 -34 145 -65 145
-69 -1 -3 -7 -17 -15 -31 -8 -14 -14 -29 -15 -35 0 -5 32 -23 70 -39 39 -15
70 -31 70 -33 0 -12 -75 -143 -81 -143 -4 0 -37 14 -74 30 -37 17 -70 28 -75
25 -4 -2 -13 -18 -20 -35 -7 -16 -16 -30 -20 -30 -4 0 -38 14 -74 31 -37 17
-68 30 -70 28 -1 -2 -11 -18 -22 -35 l-19 -31 -122 55 -122 55 20 38 c10 21
19 43 19 48 0 5 -20 17 -45 26 -64 25 -72 37 -50 85 10 22 23 40 29 40 6 0 27
35 48 78 34 72 35 78 18 90 -14 10 -16 22 -13 56 5 39 2 46 -20 61 -21 13 -29
14 -45 4 -12 -7 -25 -22 -30 -34 -9 -18 -5 -23 34 -39 49 -20 51 -24 28 -67
-17 -33 -26 -33 -97 3 -37 18 -37 19 -22 48 17 33 18 40 6 40 -10 0 -72 -136
-76 -167 -4 -40 -168 -383 -182 -383 -8 0 -12 -4 -8 -10 3 -5 12 -7 19 -4 18
7 93 -31 125 -62 13 -13 20 -24 14 -24 -5 0 -14 5 -21 12 -9 9 -22 -11 -57
-86 -25 -54 -45 -101 -45 -106 0 -21 -23 -19 -72 6 -29 15 -55 31 -57 36 -2 5
-28 -44 -58 -109 -30 -65 -58 -122 -63 -127 -6 -6 -18 -6 -32 0 -13 6 -30 9
-38 7 -10 -2 -50 -80 -100 -191 -46 -103 -87 -191 -90 -195 -4 -5 -49 85 -101
198 l-93 207 -39 -5 -38 -5 -40 86 c-22 47 -42 96 -45 108 -3 12 -16 25 -28
28 -13 3 -23 12 -23 20 0 19 -63 159 -76 167 -5 4 -7 13 -5 20 3 8 -22 72 -55
144 -32 71 -61 138 -63 148 -2 11 -15 30 -30 43 -15 14 -23 31 -20 39 3 8 2
15 -3 15 -5 0 -14 13 -21 29 -16 39 -84 75 -111 58 -23 -14 -30 -32 -23 -52 5
-13 11 -12 35 6 34 24 56 20 68 -12 7 -19 2 -26 -38 -47 -55 -28 -71 -42 -50
-42 8 0 31 11 51 25 33 23 68 25 68 5 0 -5 3 -16 7 -26 4 -12 3 -15 -6 -10
-18 11 -102 -41 -95 -59 4 -8 10 -15 15 -15 7 0 39 -62 39 -76 0 -2 -18 -15
-40 -29 l-40 -25 16 -31 c10 -20 12 -35 6 -41 -13 -13 -143 -88 -152 -88 -5 0
-12 9 -15 20 -8 25 -15 25 -66 -2 -42 -21 -49 -20 -62 17 -3 6 -20 2 -43 -9
-21 -11 -42 -21 -46 -23 -4 -2 -19 19 -33 47 -14 27 -21 50 -16 50 6 0 30 12
53 28 41 26 43 28 26 44 -10 10 -18 21 -18 25 0 5 43 35 95 67 87 54 112 76
85 76 -5 0 -10 6 -10 14 0 19 -26 40 -35 26 -13 -21 -35 -9 -50 27 -23 54 -33
63 -60 53 -19 -7 -24 -4 -34 16 -9 22 -14 23 -33 13 -18 -10 -24 -8 -38 11
-14 19 -20 20 -37 11 -18 -9 -24 -7 -37 14 -14 21 -20 24 -37 14 -25 -13 -21
-16 -47 44 -22 50 -32 56 -53 31 -10 -13 -8 -24 14 -69 l26 -53 -22 -15 -22
-15 23 -46 c27 -56 27 -65 5 -81 -15 -11 -15 -17 -5 -40 11 -23 10 -29 -9 -44
-19 -15 -20 -20 -9 -41 11 -21 10 -26 -8 -40 -21 -17 -20 -18 55 -176 72 -154
74 -159 55 -172 -20 -13 -19 -16 28 -115 44 -92 51 -102 75 -102 25 0 34 -14
133 -223 104 -220 106 -223 133 -217 22 5 29 2 34 -15 5 -17 12 -20 31 -16 19
5 27 1 36 -18 9 -20 14 -23 29 -16 26 15 26 14 54 -40 22 -44 28 -49 45 -40
27 14 25 15 49 -40 22 -51 27 -55 55 -44 13 5 12 13 -9 59 -23 54 -23 54 -3
61 17 5 19 12 13 40 -3 19 -2 34 2 34 4 0 14 4 22 9 10 7 11 13 1 31 -11 20
-9 25 10 40 19 14 21 20 11 38 -10 18 -8 24 9 34 25 16 25 29 -1 80 -17 33
-18 42 -7 49 7 5 16 9 21 9 11 0 8 35 -4 47 -8 8 -34 0 -95 -28 -97 -45 -105
-46 -122 -19 -10 16 -16 18 -32 10 -69 -37 -65 -40 -124 85 -75 158 -74 147
-21 173 45 22 45 22 31 49 -14 27 -13 28 35 56 49 27 49 28 35 55 l-14 27 81
44 c75 41 81 43 93 26 7 -10 15 -22 17 -28 3 -11 42 -4 67 12 12 8 12 13 2 23
-21 21 -13 34 36 61 48 26 82 23 82 -7 0 -20 61 -150 73 -158 11 -7 3 -23 -12
-23 -13 0 -91 -38 -91 -45 0 -3 13 -33 29 -66 15 -32 39 -83 51 -113 25 -58
26 -55 -26 -87 -16 -10 -3 -43 151 -378 118 -257 172 -365 182 -362 7 3 13 2
13 -2 0 -17 -315 -690 -336 -718 -32 -41 -74 -138 -66 -151 4 -5 31 -25 59
-45 29 -19 50 -38 45 -43 -4 -5 0 -4 8 1 8 5 22 7 31 6 18 -3 94 129 87 150
-4 10 279 608 294 623 8 8 310 -654 320 -702 5 -24 10 -43 11 -43 1 0 27 7 57
15 30 8 54 13 55 12 14 -32 25 -59 25 -62 0 -2 -25 -9 -55 -15 -30 -6 -55 -16
-55 -22 0 -10 21 -9 96 7 27 6 32 4 37 -16 3 -13 9 -20 12 -17 3 3 -8 35 -24
72 -17 36 -28 73 -24 82 4 12 9 9 19 -16 8 -18 14 -39 14 -47 0 -8 7 -21 16
-30 8 -9 14 -27 12 -42 -3 -22 -10 -27 -46 -35 -53 -11 -50 -30 6 -34 41 -3
41 -3 53 40 6 24 11 52 10 63 0 11 -1 38 -2 60 -1 22 -4 31 -7 20 -4 -16 -7
-14 -22 15 -13 24 -15 41 -9 57 5 14 5 23 -1 23 -6 0 -10 9 -10 19 0 11 -5 21
-11 23 -6 2 -84 165 -174 363 l-162 359 176 359 c168 343 175 360 156 373 -10
8 -15 14 -9 14 5 0 0 7 -10 15 -18 14 -17 19 36 132 44 92 53 121 44 132 -9
12 -7 13 10 9 19 -5 27 6 65 88 24 52 48 94 54 94 5 0 29 -9 53 -20 l42 -19
20 39 c11 22 23 40 25 40 5 0 226 -101 234 -107 2 -2 -2 -15 -10 -30 -7 -16
-15 -31 -17 -36 -2 -4 26 -20 62 -37 69 -30 74 -39 52 -79 -13 -24 -12 -25 56
-57 65 -32 68 -35 57 -56 -37 -72 -172 -308 -175 -308 -3 0 -32 14 -65 31 -64
32 -81 30 -94 -11 -5 -17 -19 -12 -141 45 l-134 64 -15 -28 c-14 -28 -14 -29
15 -41 17 -7 30 -17 30 -22 0 -5 -11 -31 -25 -58 -31 -61 -31 -64 1 -79 26
-11 27 -20 9 -63 -5 -12 2 -21 24 -33 31 -15 31 -16 16 -45 -15 -29 -15 -30
15 -45 34 -18 36 -22 15 -52 -15 -21 -14 -23 15 -38 16 -8 30 -18 30 -22 0 -3
-13 -30 -30 -59 l-30 -54 31 -16 c17 -8 32 -14 33 -12 1 2 15 26 31 53 15 28
29 51 31 53 1 2 16 -4 33 -12 16 -9 32 -16 33 -16 2 0 17 25 33 55 17 30 34
55 38 55 4 0 21 -7 37 -15 29 -15 30 -14 45 15 16 30 16 30 47 14 31 -16 32
-16 54 12 23 28 23 28 57 12 l34 -16 177 293 177 294 35 -16 c23 -12 37 -14
44 -7 6 6 46 69 90 140 l79 129 -41 18 c-38 16 -40 18 -26 40 51 76 258 427
258 435 0 6 -16 16 -35 22 -41 14 -42 17 -14 65 l21 35 -38 16 c-22 9 -40 17
-42 19 -2 2 8 21 22 43 l25 41 -34 11 c-19 6 -37 15 -40 20 -3 4 13 43 35 86
22 43 40 81 40 84 0 3 -10 6 -22 7 -11 1 -25 8 -29 15 -5 7 -9 9 -9 3 0 -5 -4
-4 -9 4 -7 10 2 36 30 86 21 40 39 76 39 82 0 5 -15 14 -34 20 -30 9 -34 8
-29 -5z m-234 -356 c9 0 17 -4 17 -8 0 -12 -23 -9 -50 8 -16 10 -18 13 -5 8
11 -4 28 -7 38 -8z m-890 -81 c56 -24 56 -25 46 -55 -6 -16 -13 -30 -15 -30
-9 0 -114 49 -114 54 0 6 22 56 25 56 2 0 28 -11 58 -25z m639 -37 c-7 -7 -12
-8 -12 -2 0 6 3 14 7 17 3 4 9 5 12 2 2 -3 -1 -11 -7 -17z m-1805 -2573 c2 -1
-3 -13 -9 -27 l-12 -25 -48 29 c-51 31 -54 38 -38 69 10 19 13 18 58 -12 26
-18 48 -33 49 -34z"/>
<path d="M2340 2784 c-41 -89 -46 -104 -31 -104 4 0 25 37 46 83 50 110 49
107 36 107 -7 0 -30 -39 -51 -86z"/>
<path d="M1391 2825 c0 -5 8 -26 19 -45 11 -19 19 -30 19 -25 0 6 -8 26 -19
45 -11 19 -19 31 -19 25z"/>
<path d="M1431 2735 c0 -5 6 -21 14 -35 8 -14 14 -20 14 -15 0 6 -6 21 -14 35
-8 14 -14 21 -14 15z"/>
<path d="M1413 646 c15 -14 35 -26 44 -26 19 0 19 0 -32 29 l-40 23 28 -26z"/>
</g>
</svg>
